{
.appVersion = 965;
copyright = "Copyright 2017 Google Inc. All Rights Reserved.";
customParameters = (
{
name = glyphOrder;
value = (
.notdef,
NULL,
CR,
space,
u10280,
u10281,
u10282,
u10283,
u10284,
u10285,
u10286,
u10287,
u10288,
u10289,
u1028A,
u1028B,
u1028C,
u1028D,
u1028E,
u1028F,
u10290,
u10291,
u10292,
u10293,
u10294,
u10295,
u10296,
u10297,
u10298,
u10299,
u1029A,
u1029B,
u1029C,
uni00A0
);
},
{
name = description;
value = "Designed by Monotype design team.";
},
{
name = license;
value = "This Font Software is licensed under the SIL Open Font License, Version 1.1. This Font Software is distributed on an \"AS IS\" BASIS, WITHOUT WARRANTIES OR CONDITIONS OF ANY KIND, either express or implied. See the SIL Open Font License for the specific language, permissions and limitations governing your use of this Font Software.";
},
{
name = licenseURL;
value = "http://scripts.sil.org/OFL";
},
{
name = vendorID;
value = GOOG;
},
{
name = unicodeRanges;
value = (
0,
1,
57,
121
);
},
{
name = trademark;
value = "Noto is a trademark of Google Inc.";
},
{
name = "Has WWS Names";
value = 1;
},
{
name = versionString;
value = "Version 1.900";
},
{
name = fsType;
value = (
);
},
{
name = codePageRanges;
value = (
1252
);
}
);
date = "2017-01-26 14:40:18 +0000";
designer = "Monotype Design Team";
designerURL = "http://www.monotype.com/studio";
disablesAutomaticAlignment = 1;
disablesNiceNames = 1;
familyName = "Noto Sans Lycian";
fontMaster = (
{
alignmentZones = (
"{1069, 15}",
"{714, 15}",
"{536, 15}",
"{0, -15}",
"{-293, -15}"
);
ascender = 1069;
capHeight = 714;
customParameters = (
{
name = typoAscender;
value = 1069;
},
{
name = typoDescender;
value = -293;
},
{
name = typoLineGap;
value = 0;
},
{
name = winAscent;
value = 1069;
},
{
name = winDescent;
value = 293;
},
{
name = hheaAscender;
value = 1069;
},
{
name = hheaDescender;
value = -293;
},
{
name = hheaLineGap;
value = 0;
},
{
name = underlinePosition;
value = -100;
},
{
name = underlineThickness;
value = 50;

glyphs = (
{
glyphname = .notdef;
lastChange = "2017-01-26 14:12:53 +0000";
layers = (
{
layerId = UUID0;
paths = (
{
closed = 1;
nodes = (
"450 0 LINE",
"450 714 LINE",
"50 714 LINE",
"50 0 LINE"
);
},
{
closed = 1;
nodes = (
"98 666 LINE",
"402 666 LINE",
"402 48 LINE",
"98 48 LINE"
);
}
);
width = 500;
}
);
},
{
glyphname = u10280;
lastChange = "2017-01-26 14:50:35 +0000";
layers = (
{
layerId = UUID0;
paths = (
{
closed = 1;
nodes = (
"188 0 LINE",
"188 268 LINE",
"562 268 LINE",
"562 344 LINE",
"188 714 LINE",
"98 714 LINE",
"98 0 LINE"
);
},
{
closed = 1;
nodes = (
"188 603 LINE",
"450 344 LINE",
"188 344 LINE"
);
}
);
width = 601;
}
);
unicode = 10280;
},
{
glyphname = u10281;
lastChange = "2017-01-26 14:19:48 +0000";
layers = (
{
layerId = UUID0;
paths = (
{
closed = 1;
nodes = (
"387 0 LINE",
"387 590 LINE",
"607 365 LINE",
"665 421 LINE",
"377 714 LINE",
"307 714 LINE",
"20 421 LINE",
"77 365 LINE",
"297 591 LINE",
"297 0 LINE"
);
}
);
width = 684;
}
);
unicode = 10281;
},
{
glyphname = u10282;
lastChange = "2017-01-26 14:20:06 +0000";
layers = (
{
layerId = UUID0;
paths = (
{
closed = 1;
nodes = (
"349 0 LINE SMOOTH",
"501 0 OFFCURVE",
"597 73 OFFCURVE",
"597 203 CURVE SMOOTH",
"597 314 OFFCURVE",
"526 359 OFFCURVE",
"437 374 CURVE",
"437 379 LINE",
"524 395 OFFCURVE",
"572 453 OFFCURVE",
"572 537 CURVE SMOOTH",
"572 667 OFFCURVE",
"479 714 OFFCURVE",
"301 714 CURVE SMOOTH",
"98 714 LINE",
"98 0 LINE"
);
},
{
closed = 1;
nodes = (
"188 334 LINE",
"325 334 LINE SMOOTH",
"457 334 OFFCURVE",
"500 285 OFFCURVE",
"500 210 CURVE SMOOTH",
"500 130 OFFCURVE",
"458 77 OFFCURVE",
"332 77 CURVE SMOOTH",
"188 77 LINE"
);
},
{
closed = 1;
nodes = (
"188 637 LINE",
"306 637 LINE SMOOTH",
"426 637 OFFCURVE",
"479 605 OFFCURVE",
"479 527 CURVE SMOOTH",
"479 450 OFFCURVE",
"441 411 OFFCURVE",
"319 411 CURVE SMOOTH",
"188 411 LINE"
);
}
);
width = 650;
}
);
unicode = 10282;
},
{
glyphname = u10283;
lastChange = "2017-01-26 14:20:25 +0000";
layers = (
{
layerId = UUID0;
paths = (
{
closed = 1;
nodes = (
"188 0 LINE",
"188 559 LINE",
"266 422 LINE",
"341 422 LINE",
"412 563 LINE",
"483 422 LINE",
"558 422 LINE",
"705 679 LINE",
"636 720 LINE",
"521 514 LINE",
"443 670 LINE",
"381 670 LINE",
"302 514 LINE",
"188 714 LINE",
"98 714 LINE",
"98 0 LINE"
);
}
);
width = 744;
}
);
unicode = 10283;
},
{
glyphname = u10284;
lastChange = "2017-01-26 14:20:34 +0000";
layers = (
{
layerId = UUID0;
paths = (
{
closed = 1;
nodes = (
"188 0 LINE",
"188 315 LINE",
"517 670 LINE",
"459 724 LINE",
"188 431 LINE",
"188 714 LINE",
"98 714 LINE",
"98 0 LINE"
);
}
);
width = 556;
}
);
unicode = 10284;
},
{
glyphname = u10285;
lastChange = "2017-01-26 14:20:42 +0000";
layers = (
{
layerId = UUID0;
paths = (
{
closed = 1;
nodes = (
"580 0 LINE",
"580 54 LINE",
"344 714 LINE",
"254 714 LINE",
"20 55 LINE",
"20 0 LINE"
);
},
{
closed = 1;
nodes = (
"250 455 LINE SMOOTH",
"270 511 OFFCURVE",
"286 568 OFFCURVE",
"298 616 CURVE",
"309 568 OFFCURVE",
"327 511 OFFCURVE",
"348 451 CURVE SMOOTH",
"481 77 LINE",
"116 77 LINE"
);
}
);
width = 600;
}
);
unicode = 10285;
},
{
glyphname = u10286;
lastChange = "2017-01-26 14:20:52 +0000";
layers = (
{
layerId = UUID0;
paths = (
{
closed = 1;
nodes = (
"497 0 LINE",
"497 77 LINE",
"188 77 LINE",
"188 334 LINE",
"479 334 LINE",
"479 411 LINE",
"188 411 LINE",
"188 637 LINE",
"497 637 LINE",
"497 714 LINE",
"98 714 LINE",
"98 0 LINE"
);
}
);
width = 555;
}
);
unicode = 10286;
},
{
glyphname = u10287;
lastChange = "2017-01-26 14:21:02 +0000";
layers = (
{
layerId = UUID0;
paths = (
{
closed = 1;
nodes = (
"188 0 LINE",
"188 305 LINE",
"478 305 LINE",
"478 381 LINE",
"188 381 LINE",
"188 637 LINE",
"497 637 LINE",
"497 714 LINE",
"98 714 LINE",
"98 0 LINE"
);
}
);
width = 526;
}
);
unicode = 10287;
},
{
glyphname = u10288;
lastChange = "2017-01-26 14:21:10 +0000";
layers = (
{
layerId = UUID0;
paths = (
{
closed = 1;
nodes = (
"491 0 LINE",
"491 77 LINE",
"314 77 LINE",
"314 637 LINE",
"491 637 LINE",
"491 714 LINE",
"49 714 LINE",
"49 637 LINE",
"225 637 LINE",
"225 77 LINE",
"49 77 LINE",
"49 0 LINE"
);
}
);
width = 540;
}
);
unicode = 10288;
},
{
glyphname = u10289;
lastChange = "2017-01-26 14:21:18 +0000";
layers = (
{
layerId = UUID0;
paths = (
{
closed = 1;
nodes = (
"168 15 OFFCURVE",
"266 75 OFFCURVE",
"321 169 CURVE",
"375 75 OFFCURVE",
"473 15 OFFCURVE",
"586 -10 CURVE",
"603 67 LINE",
"470 106 OFFCURVE",
"368 188 OFFCURVE",
"368 355 CURVE SMOOTH",
"368 520 OFFCURVE",
"470 609 OFFCURVE",
"603 646 CURVE",
"586 724 LINE",
"469 698 OFFCURVE",
"374 637 OFFCURVE",
"321 544 CURVE",
"268 637 OFFCURVE",
"173 698 OFFCURVE",
"55 724 CURVE",
"39 646 LINE",
"171 609 OFFCURVE",
"273 520 OFFCURVE",
"273 355 CURVE SMOOTH",
"273 188 OFFCURVE",
"171 106 OFFCURVE",
"39 67 CURVE",
"55 -10 LINE"
);
}
);
width = 642;
}
);
unicode = 10289;
},
{
glyphname = u1028A;
lastChange = "2017-01-26 14:21:28 +0000";
layers = (
{
layerId = UUID0;
paths = (
{
closed = 1;
nodes = (
"212 0 LINE",
"212 714 LINE",
"122 714 LINE",
"122 0 LINE"
);
}
);
width = 334;
}
);
unicode = 1028A;
},
{
glyphname = u1028B;
lastChange = "2017-01-26 14:21:36 +0000";
layers = (
{
layerId = UUID0;
paths = (
{
closed = 1;
nodes = (
"188 0 LINE",
"188 291 LINE",
"442 83 LINE",
"491 146 LINE",
"224 366 LINE",
"491 586 LINE",
"442 649 LINE",
"188 441 LINE",
"188 714 LINE",
"98 714 LINE",
"98 0 LINE"
);
}
);
width = 530;
}
);
unicode = 1028B;
},
{
glyphname = u1028C;
lastChange = "2017-01-26 14:22:09 +0000";
layers = (
{
layerId = UUID0;
paths = (
{
closed = 1;
nodes = (
"408 0 LINE",
"408 258 LINE",
"604 62 LINE",
"662 120 LINE",
"421 361 LINE",
"654 594 LINE",
"596 652 LINE",
"408 464 LINE",
"408 714 LINE",
"318 714 LINE",
"318 464 LINE",
"130 652 LINE",
"71 594 LINE",
"304 361 LINE",
"63 120 LINE",
"122 62 LINE",
"318 258 LINE",
"318 0 LINE"
);
}
);
width = 718;
}
);
unicode = 1028C;
},
{
glyphname = u1028D;
lastChange = "2017-01-26 14:22:20 +0000";
layers = (
{
layerId = UUID0;
paths = (
{
closed = 1;
nodes = (
"109 0 LINE",
"270 458 LINE SMOOTH",
"291 517 OFFCURVE",
"305 567 OFFCURVE",
"314 614 CURVE",
"324 567 OFFCURVE",
"339 516 OFFCURVE",
"360 456 CURVE SMOOTH",
"520 0 LINE",
"615 0 LINE",
"360 714 LINE",
"270 714 LINE",
"15 0 LINE"
);
}
);
width = 629;
}
);
unicode = 1028D;
},
{
glyphname = u1028E;
lastChange = "2017-01-26 14:22:29 +0000";
layers = (
{
layerId = UUID0;
paths = (
{
closed = 1;
nodes = (
"116 186 LINE",
"180 436 LINE SMOOTH",
"196 498 OFFCURVE",
"208 556 OFFCURVE",
"214 606 CURVE",
"390 186 LINE",
"482 186 LINE",
"642 606 LINE",
"647 557 OFFCURVE",
"660 498 OFFCURVE",
"676 435 CURVE SMOOTH",
"741 186 LINE",
"833 186 LINE",
"690 714 LINE",
"600 714 LINE",
"436 291 LINE",
"435 298 OFFCURVE",
"431 316 OFFCURVE",
"255 714 CURVE",
"165 714 LINE",
"123 557 OFFCURVE",
"71 363 OFFCURVE",
"24 186 CURVE"
);
}
);
width = 857;
}
);
unicode = 1028E;
},
{
glyphname = u1028F;
lastChange = "2017-01-26 14:22:38 +0000";
layers = (
{
layerId = UUID0;
paths = (
{
closed = 1;
nodes = (
"188 186 LINE",
"188 399 LINE SMOOTH",
"188 472 OFFCURVE",
"183 551 OFFCURVE",
"179 598 CURVE",
"183 598 LINE",
"531 186 LINE",
"637 186 LINE",
"637 714 LINE",
"547 714 LINE",
"547 497 LINE SMOOTH",
"547 432 OFFCURVE",
"552 326 OFFCURVE",
"554 294 CURVE",
"550 294 LINE",
"199 714 LINE",
"98 714 LINE",
"98 186 LINE"
);
}
);
width = 735;
}
);
unicode = 1028F;
},
{
glyphname = u10290;
lastChange = "2017-01-26 14:22:47 +0000";
layers = (
{
layerId = UUID0;
paths = (
{
closed = 1;
nodes = (
"100 0 LINE",
"292 310 LINE",
"481 0 LINE",
"583 0 LINE",
"345 374 LINE",
"566 714 LINE",
"471 714 LINE",
"295 434 LINE",
"120 714 LINE",
"20 714 LINE",
"242 372 LINE",
"5 0 LINE"
);
}
);
width = 588;
}
);
unicode = 10290;
},
{
glyphname = u10291;
lastChange = "2017-01-26 14:22:57 +0000";
layers = (
{
layerId = UUID0;
paths = (
{
closed = 1;
nodes = (
"573 0 LINE",
"573 77 LINE",
"351 77 LINE",
"351 325 LINE",
"573 325 LINE",
"573 401 LINE",
"351 401 LINE",
"351 637 LINE",
"573 637 LINE",
"573 714 LINE",
"39 714 LINE",
"39 637 LINE",
"261 637 LINE",
"261 401 LINE",
"39 401 LINE",
"39 325 LINE",
"261 325 LINE",
"261 77 LINE",
"39 77 LINE",
"39 0 LINE"
);
}
);
width = 612;
}
);
unicode = 10291;
},
{
glyphname = u10292;
lastChange = "2017-01-26 14:23:10 +0000";
layers = (
{
layerId = UUID0;
paths = (
{
closed = 1;
nodes = (
"606 -10 OFFCURVE",
"720 137 OFFCURVE",
"720 358 CURVE SMOOTH",
"720 580 OFFCURVE",
"606 725 OFFCURVE",
"392 725 CURVE SMOOTH",
"168 725 OFFCURVE",
"61 578 OFFCURVE",
"61 359 CURVE SMOOTH",
"61 138 OFFCURVE",
"168 -10 OFFCURVE",
"391 -10 CURVE SMOOTH"
);
},
{
closed = 1;
nodes = (
"230 68 OFFCURVE",
"156 178 OFFCURVE",
"156 358 CURVE SMOOTH",
"156 538 OFFCURVE",
"230 646 OFFCURVE",
"392 646 CURVE SMOOTH",
"553 646 OFFCURVE",
"625 538 OFFCURVE",
"625 358 CURVE SMOOTH",
"625 178 OFFCURVE",
"553 68 OFFCURVE",
"391 68 CURVE SMOOTH"
);
}
);
width = 781;
}
);
unicode = 10292;
},
{
glyphname = u10293;
lastChange = "2017-01-26 14:23:22 +0000";
layers = (
{
layerId = UUID0;
paths = (
{
closed = 1;
nodes = (
"188 0 LINE",
"188 637 LINE",
"202 637 LINE SMOOTH",
"363 637 OFFCURVE",
"479 507 OFFCURVE",
"479 327 CURVE SMOOTH",
"479 299 LINE",
"569 299 LINE",
"569 327 LINE SMOOTH",
"569 549 OFFCURVE",
"416 714 OFFCURVE",
"202 714 CURVE SMOOTH",
"98 714 LINE",
"98 0 LINE"
);
}
);
width = 628;
}
);
unicode = 10293;
},
{
glyphname = u10294;
lastChange = "2017-01-26 14:23:32 +0000";
layers = (
{
layerId = UUID0;
paths = (
{
closed = 1;
nodes = (
"400 -7 LINE",
"685 333 LINE",
"685 380 LINE",
"400 721 LINE",
"344 721 LINE",
"59 380 LINE",
"59 333 LINE",
"344 -7 LINE"
);
},
{
closed = 1;
nodes = (
"149 357 LINE",
"372 624 LINE",
"595 357 LINE",
"372 89 LINE"
);
}
);
width = 744;
}
);
unicode = 10294;
},
{
glyphname = u10295;
lastChange = "2017-01-26 14:23:40 +0000";
layers = (
{
layerId = UUID0;
paths = (
{
closed = 1;
nodes = (
"188 0 LINE",
"188 278 LINE",
"270 278 LINE SMOOTH",
"483 278 OFFCURVE",
"556 381 OFFCURVE",
"556 499 CURVE SMOOTH",
"556 632 OFFCURVE",
"474 714 OFFCURVE",
"287 714 CURVE SMOOTH",
"98 714 LINE",
"98 0 LINE"
);
},
{
closed = 1;
nodes = (
"188 637 LINE",
"278 637 LINE SMOOTH",
"404 637 OFFCURVE",
"461 592 OFFCURVE",
"461 500 CURVE SMOOTH",
"461 395 OFFCURVE",
"396 355 OFFCURVE",
"259 355 CURVE SMOOTH",
"188 355 LINE"
);
}
);
width = 617;
}
);
unicode = 10295;
},
{
glyphname = u10296;
lastChange = "2017-01-26 14:23:48 +0000";
layers = (
{
layerId = UUID0;
paths = (
{
closed = 1;
nodes = (
"330 99 OFFCURVE",
"358 193 OFFCURVE",
"358 252 CURVE SMOOTH",
"358 395 OFFCURVE",
"170 367 OFFCURVE",
"170 489 CURVE SMOOTH",
"170 544 OFFCURVE",
"228 584 OFFCURVE",
"364 654 CURVE",
"328 729 LINE",
"176 663 OFFCURVE",
"75 581 OFFCURVE",
"75 478 CURVE SMOOTH",
"75 321 OFFCURVE",
"264 318 OFFCURVE",
"264 241 CURVE SMOOTH",
"264 188 OFFCURVE",
"184 112 OFFCURVE",
"63 60 CURVE",
"104 -16 LINE"
);
}
);
width = 428;
}
);
unicode = 10296;
},
{
glyphname = u10297;
lastChange = "2017-01-26 14:23:56 +0000";
layers = (
{
layerId = UUID0;
paths = (
{
closed = 1;
nodes = (
"328 0 LINE",
"328 637 LINE",
"550 637 LINE",
"550 714 LINE",
"15 714 LINE",
"15 637 LINE",
"238 637 LINE",
"238 0 LINE"
);
}
);
width = 564;
}
);
unicode = 10297;
},
{
glyphname = u10298;
lastChange = "2017-01-26 14:24:04 +0000";
layers = (
{
layerId = UUID0;
paths = (
{
closed = 1;
nodes = (
"284 467 LINE",
"407 628 LINE",
"531 467 LINE",
"606 467 LINE",
"765 674 LINE",
"703 724 LINE",
"569 549 LINE",
"441 714 LINE",
"372 714 LINE",
"245 549 LINE",
"111 724 LINE",
"49 675 LINE",
"208 467 LINE"
);
},
{
closed = 1;
nodes = (
"452 0 LINE",
"452 482 LINE",
"362 482 LINE",
"362 0 LINE"
);
}
);
width = 814;
}
);
unicode = 10298;
},
{
glyphname = u10299;
lastChange = "2017-01-26 14:24:16 +0000";
layers = (
{
layerId = UUID0;
paths = (
{
closed = 1;
nodes = (
"360 0 LINE",
"615 714 LINE",
"522 714 LINE",
"478 589 LINE",
"435 714 LINE",
"362 714 LINE",
"443 488 LINE",
"396 352 LINE",
"269 714 LINE",
"196 714 LINE",
"361 253 LINE",
"340 196 OFFCURVE",
"323 143 OFFCURVE",
"314 98 CURVE",
"305 145 OFFCURVE",
"288 197 OFFCURVE",
"267 256 CURVE SMOOTH",
"106 714 LINE",
"15 714 LINE",
"270 0 LINE"
);
}
);
width = 629;
}
);
unicode = 10299;
},
{
glyphname = u1029A;
lastChange = "2017-01-26 14:24:25 +0000";
layers = (
{
layerId = UUID0;
paths = (
{
closed = 1;
nodes = (
"275 467 LINE",
"422 575 LINE",
"569 467 LINE",
"634 467 LINE",
"795 676 LINE",
"733 724 LINE",
"600 545 LINE",
"490 625 LINE",
"547 666 LINE",
"499 729 LINE",
"422 673 LINE",
"346 729 LINE",
"297 666 LINE",
"354 625 LINE",
"245 545 LINE",
"111 724 LINE",
"49 676 LINE",
"210 467 LINE"
);
},
{
closed = 1;
nodes = (
"467 0 LINE",
"467 482 LINE",
"377 482 LINE",
"377 0 LINE"
);
}
);
width = 844;
}
);
unicode = 1029A;
},
{
glyphname = u1029B;
lastChange = "2017-01-26 14:24:33 +0000";
layers = (
{
layerId = UUID0;
paths = (
{
closed = 1;
nodes = (
"351 0 LINE",
"351 325 LINE",
"573 325 LINE",
"573 401 LINE",
"351 401 LINE",
"351 714 LINE",
"261 714 LINE",
"261 401 LINE",
"39 401 LINE",
"39 325 LINE",
"261 325 LINE",
"261 0 LINE"
);
}
);
width = 612;
}
);
unicode = 1029B;
},
{
glyphname = u1029C;
lastChange = "2017-01-26 14:24:42 +0000";
layers = (
{
layerId = UUID0;
paths = (
{
closed = 1;
nodes = (
"362 0 LINE",
"615 714 LINE",
"520 714 LINE",
"388 298 LINE SMOOTH",
"374 253 OFFCURVE",
"362 208 OFFCURVE",
"354 163 CURVE",
"354 714 LINE",
"273 714 LINE",
"273 165 LINE",
"264 208 OFFCURVE",
"254 255 OFFCURVE",
"240 299 CURVE SMOOTH",
"109 714 LINE",
"15 714 LINE",
"267 0 LINE"
);
}
);
width = 629;
}
);
unicode = 1029C;
},
